<svg width="50" height="50" viewBox="0 0 400 400" fill="none" xmlns="http://www.w3.org/2000/svg">
<circle cx="200" cy="200" r="200" fill="#4CAF50"/>
<g clip-path="url(#clip0_5_87)">
<path d="M262.827 223.465C263.584 223.461 263.584 223.461 264.357 223.458C266.019 223.451 267.68 223.452 269.342 223.453C270.502 223.451 271.663 223.449 272.823 223.447C275.253 223.443 277.682 223.443 280.112 223.446C283.218 223.448 286.324 223.441 289.43 223.43C291.826 223.423 294.222 223.422 296.618 223.424C297.763 223.424 298.908 223.421 300.052 223.416C301.656 223.411 303.26 223.414 304.864 223.419C305.332 223.416 305.801 223.412 306.283 223.408C310.457 223.439 314.149 224.121 317.389 226.88C319.421 229.453 320.302 231.979 320.184 235.268C320.177 235.627 320.17 235.986 320.163 236.356C320.018 241.571 319.457 246.766 318.938 251.955C318.827 253.089 318.716 254.223 318.605 255.357C318.373 257.716 318.137 260.075 317.9 262.435C317.597 265.45 317.304 268.467 317.015 271.484C316.789 273.819 316.556 276.154 316.322 278.488C316.211 279.6 316.103 280.712 315.997 281.825C315.848 283.379 315.69 284.932 315.53 286.484C315.488 286.938 315.447 287.392 315.404 287.859C315.009 291.534 314.114 295.205 311.123 297.627C310.819 297.883 310.515 298.138 310.202 298.401C307.67 300.104 305.41 300.139 302.451 300.136C302.009 300.139 301.567 300.142 301.111 300.146C299.65 300.155 298.19 300.156 296.729 300.157C295.711 300.16 294.694 300.164 293.676 300.167C291.543 300.172 289.41 300.174 287.278 300.174C284.549 300.174 281.821 300.186 279.093 300.203C276.991 300.213 274.889 300.215 272.787 300.214C271.781 300.215 270.775 300.22 269.77 300.227C268.361 300.236 266.952 300.233 265.543 300.228C265.131 300.233 264.718 300.238 264.293 300.244C261.12 300.212 258.662 299.398 256.239 297.306C256.03 297.045 255.821 296.783 255.605 296.514C255.389 296.253 255.173 295.993 254.95 295.724C253.614 293.677 253.263 291.668 253.006 289.263C252.971 288.944 252.936 288.626 252.9 288.299C252.785 287.243 252.676 286.186 252.566 285.13C252.485 284.377 252.405 283.625 252.324 282.872C252.109 280.866 251.899 278.859 251.69 276.852C251.564 275.642 251.438 274.431 251.311 273.221C250.803 268.37 250.307 263.518 249.819 258.665C249.609 256.583 249.396 254.501 249.182 252.419C249.014 250.781 248.849 249.142 248.685 247.503C248.608 246.735 248.529 245.966 248.45 245.198C247.036 231.522 247.036 231.522 250.156 227.344C253.73 223.679 257.965 223.453 262.827 223.465ZM256.719 232.969C255.952 234.502 256.315 236.161 256.426 237.832C256.446 238.192 256.467 238.552 256.488 238.923C256.594 240.626 256.77 242.079 257.187 243.75C274.977 243.75 292.766 243.75 311.094 243.75C311.498 239.896 311.498 239.896 311.709 236.045C311.726 235.581 311.744 235.118 311.762 234.64C311.68 233.393 311.68 233.393 310.747 232.67C309.549 231.948 308.92 231.855 307.535 231.856C307.105 231.853 306.675 231.849 306.233 231.846C305.764 231.849 305.296 231.853 304.814 231.857C304.318 231.855 303.823 231.853 303.312 231.851C301.673 231.848 300.033 231.854 298.394 231.861C297.255 231.861 296.117 231.861 294.978 231.86C292.592 231.86 290.206 231.865 287.819 231.874C284.758 231.884 281.697 231.885 278.636 231.881C276.285 231.88 273.934 231.883 271.584 231.888C270.455 231.889 269.326 231.89 268.197 231.889C266.62 231.889 265.044 231.895 263.467 231.902C262.999 231.901 262.531 231.9 262.049 231.899C261.619 231.902 261.189 231.906 260.746 231.909C260.374 231.91 260.001 231.911 259.617 231.912C258.458 232.047 257.706 232.352 256.719 232.969ZM258.125 252.187C258.41 257.323 258.713 262.408 259.222 267.519C259.281 268.126 259.341 268.732 259.402 269.358C259.527 270.622 259.652 271.885 259.779 273.149C259.941 274.764 260.098 276.378 260.253 277.993C260.404 279.551 260.56 281.108 260.716 282.665C260.771 283.242 260.826 283.819 260.883 284.413C260.938 284.948 260.993 285.484 261.049 286.036C261.119 286.739 261.119 286.739 261.19 287.457C261.434 288.916 261.733 290.483 262.812 291.562C264.117 291.617 265.411 291.641 266.716 291.645C267.125 291.649 267.535 291.652 267.956 291.655C269.317 291.664 270.677 291.669 272.037 291.674C272.732 291.677 272.732 291.677 273.441 291.68C275.892 291.69 278.344 291.696 280.795 291.701C283.332 291.706 285.87 291.722 288.407 291.741C290.353 291.753 292.3 291.757 294.246 291.759C295.181 291.761 296.117 291.766 297.053 291.775C298.36 291.786 299.667 291.786 300.975 291.783C301.364 291.789 301.752 291.795 302.153 291.801C304.186 291.788 304.186 291.788 305.923 290.84C306.584 289.263 306.763 287.718 306.91 286.032C306.966 285.474 306.966 285.474 307.023 284.905C307.142 283.704 307.253 282.503 307.364 281.301C307.436 280.558 307.509 279.816 307.583 279.073C307.852 276.323 308.11 273.571 308.369 270.82C308.959 264.671 309.549 258.523 310.156 252.187C292.986 252.187 275.816 252.187 258.125 252.187Z" fill="white"/>
<path d="M178.921 223.465C179.678 223.461 179.678 223.461 180.451 223.458C182.113 223.451 183.774 223.452 185.436 223.453C186.596 223.451 187.757 223.449 188.917 223.447C191.347 223.443 193.776 223.443 196.206 223.446C199.312 223.448 202.418 223.441 205.524 223.43C207.92 223.423 210.316 223.422 212.712 223.424C213.857 223.424 215.001 223.421 216.146 223.416C217.75 223.411 219.354 223.414 220.958 223.419C221.426 223.416 221.894 223.412 222.377 223.408C226.468 223.439 230.488 224.029 233.528 226.983C237.31 231.527 236.257 237.558 235.778 243.06C235.537 245.668 235.278 248.274 235.015 250.88C234.903 252.016 234.791 253.152 234.679 254.288C234.444 256.656 234.207 259.023 233.968 261.391C233.663 264.418 233.365 267.446 233.07 270.474C232.84 272.815 232.606 275.155 232.371 277.495C232.26 278.612 232.15 279.728 232.041 280.845C231.889 282.405 231.73 283.965 231.57 285.524C231.527 285.98 231.484 286.436 231.44 286.906C231.064 290.466 230.483 294.153 228.008 296.894C227.754 297.188 227.5 297.482 227.239 297.784C224.512 300.016 221.823 300.207 218.439 300.189C217.996 300.193 217.554 300.196 217.098 300.199C215.642 300.208 214.187 300.206 212.731 300.203C211.715 300.205 210.699 300.208 209.683 300.211C207.555 300.215 205.428 300.214 203.301 300.209C200.58 300.204 197.859 300.213 195.138 300.227C193.04 300.235 190.942 300.235 188.844 300.233C187.841 300.233 186.838 300.235 185.835 300.241C184.43 300.248 183.026 300.243 181.622 300.235C181.005 300.242 181.005 300.242 180.377 300.249C177.214 300.211 174.82 299.368 172.349 297.372C169.427 293.881 168.848 289.949 168.43 285.524C168.379 285.032 168.329 284.54 168.277 284.033C168.112 282.416 167.954 280.798 167.797 279.181C167.684 278.048 167.57 276.914 167.456 275.781C167.219 273.409 166.985 271.036 166.753 268.663C166.458 265.638 166.155 262.614 165.85 259.59C165.615 257.25 165.383 254.909 165.152 252.568C165.042 251.454 164.93 250.34 164.818 249.226C163.04 231.501 163.04 231.501 166.25 227.344C169.833 223.684 174.052 223.453 178.921 223.465ZM172.344 233.437C172.042 234.449 172.042 234.449 172.168 235.576C172.189 235.988 172.21 236.399 172.232 236.823C172.269 237.253 172.306 237.682 172.344 238.125C172.376 238.559 172.408 238.994 172.441 239.441C172.58 241.669 172.58 241.669 173.281 243.75C190.916 243.75 208.55 243.75 226.719 243.75C227.582 242.024 227.516 240.027 227.656 238.125C227.693 237.695 227.73 237.266 227.768 236.823C227.789 236.412 227.81 236 227.832 235.576C227.866 235.011 227.866 235.011 227.902 234.435C227.74 233.361 227.74 233.361 226.774 232.683C224.659 231.74 222.728 231.835 220.436 231.849C219.946 231.847 219.456 231.844 218.95 231.842C217.331 231.836 215.711 231.84 214.092 231.844C212.966 231.843 211.84 231.842 210.714 231.84C208.354 231.838 205.995 231.841 203.635 231.848C200.61 231.856 197.585 231.851 194.561 231.843C192.235 231.838 189.91 231.839 187.585 231.843C186.47 231.844 185.355 231.843 184.239 231.84C182.681 231.836 181.122 231.841 179.564 231.849C179.102 231.846 178.641 231.844 178.166 231.841C175.022 231.868 175.022 231.868 172.344 233.437ZM174.219 252.187C174.219 255.016 174.233 257.611 174.498 260.389C174.542 260.866 174.542 260.866 174.588 261.352C174.685 262.383 174.786 263.414 174.887 264.445C174.957 265.169 175.028 265.893 175.098 266.618C175.245 268.127 175.393 269.636 175.543 271.145C175.735 273.076 175.919 275.009 176.101 276.942C176.243 278.434 176.39 279.926 176.539 281.417C176.609 282.13 176.677 282.843 176.744 283.556C176.836 284.55 176.937 285.543 177.039 286.537C177.094 287.101 177.149 287.666 177.206 288.248C177.593 290.182 177.593 290.182 178.906 291.562C180.3 291.751 181.521 291.819 182.916 291.805C183.326 291.808 183.735 291.812 184.157 291.815C185.512 291.823 186.867 291.818 188.223 291.811C189.163 291.813 190.104 291.815 191.044 291.817C193.016 291.82 194.988 291.816 196.96 291.807C199.49 291.796 202.019 291.802 204.549 291.814C206.492 291.82 208.434 291.818 210.376 291.813C211.309 291.812 212.242 291.814 213.175 291.818C214.478 291.823 215.781 291.816 217.084 291.805C217.665 291.811 217.665 291.811 218.257 291.817C220.297 291.794 220.297 291.794 222.019 290.807C222.638 289.366 222.808 288.1 222.961 286.537C222.993 286.224 223.025 285.911 223.058 285.589C223.163 284.557 223.259 283.524 223.355 282.491C223.426 281.77 223.498 281.048 223.57 280.326C223.72 278.813 223.865 277.299 224.008 275.784C224.19 273.855 224.379 271.926 224.571 269.997C224.719 268.506 224.864 267.014 225.009 265.521C225.077 264.811 225.147 264.1 225.217 263.39C225.314 262.39 225.409 261.39 225.502 260.389C225.556 259.823 225.61 259.256 225.666 258.672C225.804 256.514 225.781 254.349 225.781 252.187C208.766 252.187 191.75 252.187 174.219 252.187Z" fill="white"/>
<path d="M95.1209 223.412C95.6261 223.409 96.1313 223.407 96.6519 223.404C98.3084 223.398 99.9646 223.402 101.621 223.407C102.78 223.406 103.939 223.405 105.099 223.403C107.523 223.401 109.946 223.404 112.37 223.41C115.469 223.418 118.568 223.414 121.666 223.405C124.058 223.4 126.45 223.402 128.842 223.406C129.984 223.407 131.126 223.405 132.269 223.402C133.868 223.399 135.467 223.404 137.067 223.412C137.533 223.409 138 223.406 138.481 223.403C142.151 223.436 145.436 224.006 148.584 225.967C151.738 229.414 152.447 232.496 152.249 237.075C151.998 241.344 151.524 245.598 151.093 249.851C150.979 250.988 150.866 252.126 150.753 253.263C150.516 255.636 150.277 258.01 150.036 260.383C149.729 263.418 149.426 266.453 149.125 269.488C148.892 271.833 148.657 274.177 148.421 276.521C148.308 277.64 148.196 278.759 148.085 279.879C147.93 281.443 147.771 283.008 147.611 284.572C147.544 285.258 147.544 285.258 147.475 285.958C146.971 290.821 146.471 294.997 142.521 298.29C140.779 299.498 139.275 300.056 137.175 300.069C136.792 300.072 136.409 300.076 136.014 300.079C135.595 300.08 135.177 300.082 134.745 300.083C134.303 300.086 133.861 300.089 133.405 300.092C131.94 300.102 130.474 300.107 129.008 300.112C128.257 300.115 128.257 300.115 127.491 300.118C124.839 300.127 122.187 300.134 119.536 300.138C116.8 300.144 114.064 300.16 111.329 300.178C109.223 300.191 107.117 300.195 105.011 300.196C104.002 300.198 102.994 300.204 101.986 300.213C100.572 300.224 99.1591 300.224 97.7454 300.22C97.1246 300.229 97.1246 300.229 96.4913 300.239C93.2388 300.211 90.8185 299.345 88.324 297.237C87.9452 296.792 87.9452 296.792 87.5586 296.338C87.2988 296.045 87.039 295.752 86.7713 295.45C85.027 292.683 84.8914 289.343 84.5765 286.165C84.5009 285.437 84.5009 285.437 84.4237 284.694C84.2583 283.094 84.0974 281.494 83.9368 279.893C83.8227 278.773 83.7084 277.652 83.594 276.531C83.3548 274.181 83.118 271.831 82.8826 269.48C82.5828 266.489 82.2765 263.499 81.9683 260.508C81.7305 258.192 81.4966 255.875 81.2639 253.558C81.1527 252.456 81.0402 251.355 80.9263 250.254C80.4125 245.27 79.9076 240.286 79.8144 235.273C79.8028 234.947 79.7912 234.622 79.7793 234.286C79.7767 231.406 80.8531 229.106 82.6111 226.881C86.2669 223.767 90.4732 223.383 95.1209 223.412ZM88.4375 233.438C88.1919 234.669 88.1919 234.669 88.2911 236.045C88.3025 236.5 88.314 236.955 88.3259 237.424C88.4698 239.536 88.6956 241.643 88.9063 243.75C106.695 243.75 124.484 243.75 142.813 243.75C144.115 238.004 144.115 238.004 142.813 232.5C141.49 232.059 140.679 231.971 139.31 231.965C138.881 231.963 138.452 231.96 138.01 231.957C137.54 231.957 137.07 231.956 136.586 231.956C136.091 231.953 135.595 231.951 135.085 231.949C133.442 231.942 131.8 231.939 130.158 231.936C129.019 231.933 127.88 231.931 126.741 231.928C124.352 231.923 121.963 231.92 119.574 231.919C116.509 231.916 113.444 231.905 110.379 231.892C108.026 231.883 105.673 231.88 103.321 231.88C102.19 231.878 101.06 231.874 99.9302 231.868C98.3511 231.86 96.7724 231.861 95.1933 231.864C94.7245 231.86 94.2557 231.856 93.7727 231.851C93.127 231.855 93.127 231.855 92.4683 231.859C92.095 231.858 91.7218 231.858 91.3373 231.857C90.0396 232.078 89.3896 232.541 88.4375 233.438ZM89.8438 252.188C90.4335 258.423 91.0233 264.659 91.6309 271.084C91.8139 273.053 91.9969 275.023 92.1854 277.052C92.3554 278.817 92.3554 278.817 92.5271 280.581C92.6028 281.367 92.676 282.153 92.7472 282.94C92.8556 284.131 92.9719 285.321 93.0899 286.511C93.12 286.862 93.1501 287.213 93.181 287.574C93.354 289.385 93.354 289.385 94.2061 290.949C95.5961 292.023 97.3307 291.753 99.0175 291.737C99.4277 291.739 99.8379 291.74 100.26 291.742C101.618 291.746 102.975 291.74 104.333 291.733C105.275 291.733 106.216 291.733 107.158 291.734C109.132 291.733 111.105 291.729 113.079 291.72C115.613 291.709 118.147 291.709 120.682 291.712C122.626 291.714 124.57 291.711 126.514 291.706C127.449 291.704 128.384 291.704 129.318 291.705C130.623 291.705 131.927 291.699 133.231 291.691C133.62 291.692 134.009 291.694 134.409 291.695C136.488 291.761 136.488 291.761 138.125 290.625C138.425 289.282 138.425 289.282 138.608 287.702C138.686 287.108 138.763 286.515 138.843 285.904C139.181 283.072 139.487 280.239 139.769 277.401C139.83 276.795 139.892 276.189 139.954 275.565C140.082 274.296 140.209 273.026 140.335 271.757C140.496 270.14 140.659 268.523 140.824 266.907C140.982 265.346 141.137 263.786 141.293 262.225C141.351 261.65 141.41 261.075 141.47 260.482C141.524 259.941 141.577 259.399 141.632 258.841C141.679 258.369 141.726 257.898 141.775 257.412C141.893 255.674 141.875 253.929 141.875 252.188C124.705 252.188 107.534 252.188 89.8438 252.188Z" fill="white"/>
<path d="M244.059 116.534C247.882 118.343 250.268 123.108 252.505 126.52C252.882 127.091 252.882 127.091 253.266 127.673C253.791 128.47 254.315 129.268 254.839 130.066C255.635 131.28 256.435 132.49 257.236 133.701C257.749 134.481 258.262 135.261 258.775 136.042C259.011 136.399 259.248 136.756 259.491 137.124C263.217 142.827 265.181 148.181 263.984 155.107C262.259 162.118 258.157 166.322 252.294 170.181C251.448 170.74 250.611 171.31 249.774 171.881C243.858 175.86 239.057 176.454 232.051 176.338C231.304 176.331 230.558 176.324 229.811 176.319C227.999 176.303 226.187 176.279 224.375 176.25C224.175 177.13 224.175 177.13 223.97 178.028C223.496 180.11 222.657 181.319 221.094 182.812C218.815 184.102 216.662 184.666 214.062 184.219C211.236 183.187 209.205 181.51 207.125 179.388C206.842 179.106 206.559 178.824 206.268 178.534C205.676 177.941 205.087 177.346 204.499 176.749C203.603 175.84 202.699 174.939 201.794 174.04C201.217 173.46 200.64 172.88 200.064 172.299C199.796 172.032 199.528 171.765 199.252 171.49C197.167 169.356 195.588 167.22 195.547 164.121C195.532 163.755 195.518 163.389 195.503 163.011C196.208 159.736 198.706 157.176 201.024 154.883C201.294 154.611 201.565 154.339 201.845 154.058C202.413 153.489 202.983 152.922 203.555 152.356C204.425 151.493 205.288 150.623 206.15 149.752C206.706 149.196 207.263 148.641 207.82 148.087C208.075 147.829 208.33 147.571 208.593 147.305C210.409 145.522 212.204 144.122 214.795 143.719C218.052 143.751 219.984 144.228 222.383 146.572C223.438 148.125 223.438 148.125 224.375 151.875C231.568 151.643 231.568 151.643 238.906 151.406C238.037 150.114 237.168 148.821 236.273 147.49C235.432 146.235 234.591 144.98 233.751 143.724C233.167 142.853 232.582 141.983 231.997 141.112C231.154 139.861 230.315 138.607 229.476 137.353C229.215 136.965 228.953 136.577 228.683 136.178C226.695 133.196 225.251 130.747 225.781 127.031C226.749 123.627 229.04 121.911 231.875 120C232.353 119.657 232.831 119.315 233.323 118.962C236.917 116.53 239.773 115.231 244.059 116.534ZM240.312 124.687C237.528 126.544 237.528 126.544 234.688 128.437C235.167 130.355 235.932 131.627 237.022 133.226C237.212 133.509 237.402 133.792 237.597 134.083C238.005 134.691 238.414 135.297 238.824 135.903C239.467 136.851 240.106 137.802 240.744 138.753C242.184 140.898 243.629 143.039 245.075 145.18C245.866 146.352 246.656 147.524 247.445 148.697C247.985 149.5 248.527 150.302 249.071 151.102C250.564 153.322 251.823 155.55 252.969 157.969C254.977 156.032 255.841 153.733 255.957 150.937C255.774 147.611 254.183 144.759 252.412 142.002C252.216 141.693 252.02 141.383 251.819 141.065C248.226 135.464 244.47 129.884 240.312 124.687ZM214.426 153.802C213.971 154.257 213.517 154.714 213.065 155.171C212.826 155.41 212.587 155.649 212.341 155.896C211.576 156.664 210.812 157.434 210.049 158.203C209.532 158.723 209.014 159.242 208.497 159.761C207.226 161.038 205.956 162.315 204.688 163.594C205.42 165.352 206.511 166.469 207.853 167.805C208.177 168.129 208.177 168.129 208.508 168.459C208.963 168.913 209.419 169.365 209.876 169.816C210.578 170.51 211.276 171.207 211.974 171.905C213.736 174.044 213.736 174.044 215.938 175.312C215.96 174.957 215.983 174.601 216.007 174.234C216.042 173.768 216.077 173.302 216.113 172.822C216.146 172.36 216.179 171.898 216.212 171.421C216.406 170.156 216.406 170.156 217.344 168.75C218.624 168.323 219.369 168.223 220.686 168.222C221.074 168.22 221.462 168.219 221.862 168.217C222.281 168.216 222.7 168.216 223.132 168.215C224.024 168.207 224.917 168.198 225.81 168.188C227.213 168.174 228.615 168.164 230.018 168.164C237.234 168.408 237.234 168.408 243.594 165.469C244.686 164.146 244.686 164.146 245 162.656C244.869 161.87 244.716 161.088 244.531 160.312C244.212 160.309 243.894 160.305 243.565 160.301C240.25 160.261 236.935 160.214 233.619 160.164C232.382 160.146 231.144 160.129 229.906 160.115C228.128 160.093 226.351 160.066 224.573 160.038C224.018 160.032 223.464 160.027 222.893 160.021C222.377 160.012 221.861 160.003 221.329 159.993C220.876 159.987 220.422 159.981 219.954 159.974C218.701 159.838 217.931 159.585 216.875 158.906C216.273 157.702 216.252 156.672 216.143 155.332C216.084 154.627 216.084 154.627 216.024 153.907C215.995 153.546 215.967 153.185 215.938 152.812C215.286 152.759 215.286 152.759 214.426 153.802Z" fill="white"/>
<path d="M171.875 109.219C175.212 112.184 175.667 115.872 176.475 120.059C176.615 120.747 176.756 121.435 176.899 122.122C177.266 123.913 177.619 125.706 177.969 127.5C178.058 127.929 178.146 128.358 178.238 128.8C178.767 131.566 179.009 134.788 177.676 137.344C176.161 139.257 174.653 140.324 172.344 141.094C171.661 141.137 170.977 141.155 170.293 141.152C169.765 141.154 169.765 141.154 169.227 141.156C168.043 141.089 166.938 140.882 165.781 140.625C165.233 141.366 164.686 142.109 164.141 142.852C163.836 143.265 163.532 143.678 163.218 144.104C161.501 146.488 159.903 148.956 158.281 151.406C158.575 151.409 158.868 151.412 159.17 151.415C162.227 151.445 165.284 151.484 168.341 151.529C169.481 151.545 170.621 151.558 171.762 151.569C173.402 151.584 175.043 151.609 176.683 151.635C177.446 151.64 177.446 151.64 178.224 151.644C181.27 151.703 183.54 151.934 185.873 154.087C186.098 154.362 186.322 154.638 186.553 154.922C186.898 155.335 186.898 155.335 187.25 155.757C188.853 158.054 188.386 161.036 188.398 163.711C188.408 164.236 188.418 164.761 188.428 165.302C188.444 168.665 188.372 171.261 186.069 173.888C185.656 174.216 185.656 174.216 185.234 174.551C184.821 174.89 184.821 174.89 184.399 175.236C182.786 176.328 181.331 176.313 179.442 176.326C178.877 176.33 178.312 176.335 177.729 176.339C177.117 176.341 176.505 176.343 175.874 176.345C175.561 176.347 175.248 176.348 174.926 176.349C173.267 176.356 171.607 176.361 169.948 176.363C168.246 176.365 166.545 176.376 164.843 176.39C163.525 176.399 162.207 176.401 160.889 176.402C159.96 176.404 159.032 176.412 158.104 176.421C151.496 176.405 146.197 174.848 141.289 170.303C137.371 166.154 135.633 161.229 135.64 155.585C135.638 155.237 135.636 154.889 135.634 154.531C135.632 153.801 135.631 153.07 135.633 152.34C135.635 151.236 135.624 150.133 135.612 149.03C135.578 142.106 137.024 138.142 141.055 132.48C141.756 131.494 142.452 130.504 143.142 129.511C143.45 129.079 143.758 128.647 144.075 128.202C144.784 127.1 144.784 127.1 144.608 126.012C144.213 125.051 144.213 125.051 143.281 123.984C141.685 121.989 141.664 120.184 141.875 117.656C142.751 115.025 144.126 112.983 146.563 111.563C148.311 110.985 150.084 110.656 151.895 110.332C152.643 110.188 152.643 110.188 153.407 110.041C154.409 109.85 155.412 109.662 156.415 109.478C157.642 109.25 158.864 109.01 160.087 108.759C168.642 107.04 168.642 107.04 171.875 109.219ZM160.032 117.4C159.334 117.532 158.636 117.662 157.937 117.79C156.933 117.975 155.93 118.165 154.927 118.356C154.323 118.469 153.72 118.582 153.098 118.698C152.643 118.818 152.188 118.939 151.719 119.063C151.564 119.372 151.409 119.681 151.25 120C151.521 120.154 151.791 120.308 152.07 120.467C152.418 120.69 152.766 120.913 153.125 121.143C153.473 121.355 153.821 121.567 154.18 121.785C155.297 123.184 155.189 124.171 155.152 125.919C154.904 127.734 154.06 128.947 152.999 130.404C152.794 130.702 152.589 131.001 152.378 131.308C151.728 132.253 151.065 133.187 150.4 134.121C149.743 135.06 149.089 136.001 148.438 136.944C148.034 137.527 147.626 138.108 147.214 138.686C145.246 141.493 143.825 144.112 144.219 147.656C145.083 149.657 146.114 150.35 147.969 151.406C148.136 151.156 148.303 150.905 148.475 150.647C150.214 148.045 151.955 145.445 153.699 142.846C154.35 141.876 155 140.904 155.649 139.932C156.58 138.537 157.516 137.144 158.452 135.751C158.742 135.315 159.032 134.879 159.331 134.429C159.603 134.026 159.875 133.622 160.155 133.207C160.393 132.851 160.632 132.495 160.877 132.128C161.563 131.25 161.563 131.25 162.969 130.313C165.992 130.01 167.487 130.512 170 132.188C169.239 126.806 167.954 121.538 166.719 116.25C164.525 116.25 162.196 116.99 160.032 117.4ZM144.688 159.375C146.237 163.054 148.229 165.424 151.882 167.146C154.563 168.123 157.249 167.987 160.068 167.95C160.635 167.948 161.202 167.946 161.786 167.944C163.587 167.936 165.387 167.918 167.188 167.9C168.413 167.893 169.637 167.887 170.862 167.881C173.856 167.866 176.85 167.841 179.844 167.813C179.844 165.338 179.844 162.863 179.844 160.313C178.895 160.301 177.947 160.289 176.97 160.277C173.828 160.238 170.687 160.196 167.546 160.153C165.642 160.128 163.738 160.103 161.835 160.079C159.996 160.057 158.157 160.032 156.318 160.006C155.619 159.997 154.919 159.988 154.219 159.98C153.235 159.969 152.251 159.955 151.267 159.94C150.429 159.929 150.429 159.929 149.573 159.918C147.92 159.842 146.322 159.635 144.688 159.375Z" fill="white"/>
<path d="M204.151 62.3532C205.251 62.8557 206.361 63.3306 207.472 63.8068C215.252 67.2174 218.581 71.6593 222.969 78.75C223.411 79.4582 223.853 80.1662 224.296 80.874C224.635 81.416 224.974 81.958 225.312 82.5C225.709 82.3453 226.105 82.1906 226.514 82.0313C229.475 81.1698 231.612 81.3815 234.283 82.8388C236.089 84.0766 237.271 85.5627 237.969 87.6563C238.474 91.702 237.367 95.6468 236.444 99.5524C236.181 100.667 235.928 101.783 235.675 102.9C235.51 103.617 235.343 104.334 235.176 105.051C235.064 105.546 235.064 105.546 234.95 106.05C234.102 109.592 232.982 111.759 230 113.906C226.896 115.578 223.542 114.777 220.257 114.089C219.873 114.011 219.489 113.932 219.093 113.851C218.286 113.684 217.478 113.515 216.672 113.345C215.443 113.087 214.212 112.839 212.981 112.592C212.193 112.427 211.406 112.263 210.618 112.097C210.071 111.989 210.071 111.989 209.513 111.878C206.199 111.16 203.792 109.751 201.875 106.875C200.741 104.498 200.771 102.357 201.406 99.8438C202.314 98.2617 202.314 98.2617 203.281 97.0313C203.745 96.3352 203.745 96.3352 204.219 95.625C203.76 94.9452 203.76 94.9452 203.292 94.2517C201.191 91.1254 199.121 88.0082 197.261 84.7302C196.77 83.8338 196.77 83.8338 195.781 83.4375C195.665 83.8236 195.549 84.2097 195.429 84.6074C194.752 86.5059 193.895 88.2426 192.972 90.0311C192.791 90.3858 192.609 90.7404 192.422 91.1057C192.04 91.852 191.656 92.5977 191.271 93.3429C190.685 94.4788 190.105 95.6171 189.524 96.7557C189.151 97.4831 188.777 98.2103 188.402 98.9374C188.23 99.2753 188.058 99.6133 187.881 99.9615C186.608 102.414 185.331 104.8 182.773 106.084C182.486 106.237 182.198 106.39 181.902 106.547C178.586 107.517 176.194 106.747 173.281 105.176C172.954 105.005 172.627 104.834 172.29 104.658C165.511 101.043 165.511 101.043 163.906 97.5C162.916 93.1579 164.941 89.7627 166.972 86.0957C167.627 84.8971 168.264 83.6898 168.895 82.4781C169.498 81.3191 170.106 80.1624 170.714 79.006C171.015 78.4342 171.314 77.8619 171.613 77.2891C175.388 70.0709 179.527 63.6143 187.344 60.4688C193.109 58.8427 198.839 59.9219 204.151 62.3532ZM184.531 72.1875C182.137 75.777 180.191 79.671 178.179 83.4828C177.644 84.4975 177.106 85.5111 176.569 86.5247C176.223 87.1777 175.877 87.8308 175.532 88.4839C175.373 88.7828 175.215 89.0817 175.052 89.3896C174.126 91.1445 173.225 92.9097 172.344 94.6875C173.248 95.2499 174.157 95.8053 175.068 96.3574C175.574 96.6674 176.08 96.9774 176.601 97.2968C177.949 98.158 177.949 98.158 179.375 97.5C179.922 96.7579 179.922 96.7579 180.364 95.8165C180.546 95.459 180.728 95.1015 180.915 94.7331C181.108 94.3416 181.302 93.9501 181.501 93.5468C181.706 93.1409 181.912 92.735 182.123 92.3168C182.784 91.0096 183.438 89.6993 184.092 88.3887C184.944 86.6889 185.8 84.9904 186.657 83.2929C186.868 82.8749 187.079 82.4569 187.296 82.0262C192.112 72.5355 192.112 72.5355 194.844 68.4375C190.895 68.1504 187.348 69.2947 184.531 72.1875ZM201.406 74.0625C201.406 75.7197 201.772 76.2088 202.66 77.5818C202.93 78.0021 203.2 78.4223 203.478 78.8553C203.771 79.304 204.064 79.7526 204.365 80.2149C204.809 80.9042 204.809 80.9042 205.262 81.6074C206.668 83.7884 208.086 85.9619 209.503 88.136C209.735 88.4924 209.967 88.8489 210.206 89.2161C210.636 89.8759 211.067 90.5347 211.5 91.1923C214.531 95.8286 214.531 95.8286 214.531 97.9981C213.697 100.448 211.863 101.61 209.844 103.125C215.103 104.208 220.362 105.291 225.781 106.406C227.221 101.103 227.221 101.103 228.477 95.7715C228.59 95.2476 228.704 94.7237 228.821 94.184C229.117 92.7369 229.117 92.7369 229.062 90.9375C227.539 91.4474 227.539 91.4474 226.25 92.3438C225.568 92.39 224.883 92.4046 224.199 92.4024C223.828 92.4036 223.457 92.4048 223.075 92.406C222.031 92.3438 222.031 92.3438 220.625 91.875C220.298 91.0996 219.99 90.3165 219.687 89.5313C218.934 88.2406 218.109 86.9987 217.285 85.752C217.055 85.4011 216.824 85.0501 216.587 84.6886C216.121 83.9795 215.655 83.271 215.187 82.563C214.602 81.6709 214.027 80.7737 213.456 79.8725C210.575 75.3856 210.575 75.3856 206.094 72.6563C204.124 72.4037 202.974 72.8531 201.406 74.0625Z" fill="white"/>
<path d="M201.406 183.75C202.672 184.594 203.535 185.196 204.219 186.563C204.258 187.276 204.269 187.991 204.265 188.705C204.263 189.125 204.262 189.545 204.26 189.977C204.256 190.417 204.252 190.856 204.248 191.309C204.246 191.752 204.244 192.194 204.242 192.651C204.236 193.746 204.228 194.842 204.219 195.938C204.62 195.936 205.02 195.935 205.433 195.934C215.187 195.903 224.94 195.879 234.693 195.865C239.409 195.857 244.126 195.848 248.843 195.831C252.953 195.817 257.064 195.808 261.175 195.805C263.352 195.803 265.529 195.799 267.705 195.789C269.754 195.779 271.804 195.776 273.853 195.778C274.604 195.778 275.356 195.775 276.108 195.77C277.135 195.763 278.162 195.765 279.19 195.768C280.052 195.766 280.052 195.766 280.931 195.765C282.978 195.99 284.556 196.654 286.083 198.047C288.49 201.138 288.256 203.81 288.301 207.598C288.318 208.153 288.336 208.708 288.354 209.28C288.395 213.359 288.395 213.359 287.061 215.29C285.115 216.512 284.298 216.418 282.031 216.094C280.892 215.217 280.325 214.556 279.688 213.281C279.688 210.342 279.688 207.403 279.688 204.375C254.783 204.375 229.878 204.375 204.219 204.375C204.219 207.469 204.219 210.563 204.219 213.75C201.875 216.094 201.875 216.094 200.908 216.405C200.609 216.399 200.309 216.393 200 216.387C199.55 216.396 199.55 216.396 199.092 216.405C198.125 216.094 198.125 216.094 195.781 213.75C195.781 210.656 195.781 207.563 195.781 204.375C170.877 204.375 145.972 204.375 120.313 204.375C120.313 207.314 120.313 210.253 120.313 213.281C119.375 215.156 119.375 215.156 117.969 216.094C114.787 216.453 114.787 216.453 112.943 215.286C111.278 212.891 111.553 210.56 111.611 207.715C111.606 207.172 111.601 206.628 111.596 206.069C111.623 202.911 111.836 200.829 113.75 198.281C116.014 196.183 117.608 195.879 120.641 195.881C120.962 195.881 121.283 195.88 121.613 195.88C122.691 195.879 123.768 195.882 124.846 195.884C125.617 195.884 126.389 195.884 127.16 195.884C129.257 195.884 131.353 195.887 133.45 195.89C135.64 195.893 137.83 195.893 140.021 195.894C144.169 195.895 148.318 195.899 152.466 195.904C157.189 195.909 161.912 195.912 166.634 195.914C176.35 195.919 186.066 195.927 195.781 195.938C195.771 195.666 195.762 195.394 195.752 195.114C195.712 193.875 195.688 192.636 195.664 191.397C195.648 190.969 195.633 190.542 195.616 190.101C195.587 188.054 195.576 186.897 196.668 185.118C198.256 183.674 199.274 183.541 201.406 183.75Z" fill="white"/>
</g>
<defs>
<clipPath id="clip0_5_87">
<rect width="240" height="240" fill="white" transform="translate(80 60)"/>
</clipPath>
</defs>
</svg>
