<svg width="400" height="400" viewBox="0 0 400 400" fill="none" xmlns="http://www.w3.org/2000/svg">
<circle cx="200" cy="200" r="200" fill="#4CAF50"/>
<path fill-rule="evenodd" clip-rule="evenodd" d="M199.882 58.3763C201.402 58.3763 203.935 59.0085 205.835 59.8937C207.734 60.7788 210.267 62.6123 211.597 64.193C213.117 65.8368 214.383 68.2394 214.953 70.389C215.586 72.6019 215.776 74.7515 215.523 76.3954C215.27 77.7863 214.32 80.3153 213.37 82.0224C212.483 83.6662 210.584 85.8791 209.191 86.8907C207.798 87.9023 206.278 88.7242 205.835 88.7242C205.265 88.7242 205.075 91.8855 205.075 115.911H209.317C212.8 115.974 214.193 116.29 216.663 117.681C218.372 118.63 220.399 120.4 221.222 121.601C222.108 122.802 222.995 124.762 223.755 127.924H235.786L250.983 101.749L249.21 98.2712C247.627 95.1732 247.437 94.1616 247.627 90.2416C247.753 86.5746 248.133 85.2469 249.78 82.6546C250.919 80.7579 252.819 78.8611 254.782 77.6599C257.505 75.9528 258.391 75.7631 263.014 75.7631C267.7 75.7631 268.46 75.9528 271.309 77.7231C273.209 78.8611 275.108 80.7579 276.311 82.7179C277.894 85.3101 278.211 86.5114 278.401 90.5577C278.528 94.7938 278.338 95.7422 276.818 98.5241C275.868 100.231 273.905 102.507 272.512 103.582C271.056 104.72 268.523 105.921 266.497 106.364C264.597 106.743 262.317 106.996 261.431 106.807C259.974 106.427 259.468 107.123 247.69 127.608L251.553 128.493C254.845 129.251 255.922 129.884 258.581 132.602C260.544 134.562 262.064 136.838 262.571 138.356C262.951 139.747 263.33 142.971 263.33 145.437C263.33 149.989 263.267 150.116 260.798 152.581C258.708 154.668 258.265 155.553 258.265 157.639C258.265 159.03 258.518 160.105 258.898 159.979C259.215 159.915 267.13 155.49 293.408 140.316L293.471 136.838C293.471 134.436 293.978 132.349 294.928 130.453C295.751 128.872 297.017 126.912 297.714 126.09C298.474 125.268 300.5 123.94 302.273 123.119C304.489 122.044 306.579 121.601 309.238 121.601C311.518 121.601 314.051 122.107 315.571 122.802C316.964 123.371 319.243 125.205 320.636 126.786C322.029 128.303 323.549 130.706 323.929 132.096C324.372 133.424 324.752 135.7 324.752 137.091C324.752 138.482 324.372 140.758 323.929 142.086C323.549 143.477 322.029 145.88 320.636 147.397C319.243 148.978 316.964 150.811 315.571 151.38C314.051 152.076 311.518 152.581 309.238 152.581C306.326 152.581 304.616 152.202 298.411 149.104L278.464 160.611C267.51 166.933 258.265 172.308 257.821 172.624C257.378 172.94 256.808 176.227 256.365 181.033C256.049 185.395 255.605 190.263 255.099 194.942H283.277C305.376 194.942 311.455 194.752 311.455 194.12C311.455 193.741 312.278 192.223 313.291 190.832C314.304 189.441 316.52 187.545 318.167 186.66C319.876 185.711 322.409 184.763 323.802 184.51C325.449 184.257 327.602 184.447 329.945 185.079C332.604 185.838 334.377 186.849 336.403 188.746C338.219 190.558 339.591 192.729 340.519 195.258C341.532 197.914 341.786 199.684 341.532 201.265C341.279 202.466 340.519 204.868 339.759 206.575C339 208.282 337.353 210.559 336.15 211.57C334.947 212.645 332.921 213.909 331.718 214.415C330.514 214.921 327.792 215.364 325.702 215.364C322.663 215.364 321.206 214.984 318.483 213.53C316.33 212.392 314.431 210.685 313.291 208.978C312.278 207.524 311.455 206.07 311.455 205.69C311.455 205.248 301.513 205.058 254.465 205.058L254.212 206.449C254.022 207.271 253.642 211.633 253.262 216.122C252.882 220.611 252.629 224.405 252.756 224.468C252.819 224.531 263.141 230.474 298.474 250.896L301.957 249.126C304.553 247.861 306.326 247.419 309.049 247.419C311.075 247.419 313.798 247.861 315.064 248.43C316.394 248.936 318.42 250.264 319.56 251.402C320.763 252.54 322.283 254.563 322.979 255.954C323.676 257.345 324.436 259.748 324.626 261.328C324.816 263.162 324.562 265.311 323.866 267.334C323.296 269.105 322.093 271.444 321.27 272.582C320.383 273.657 318.483 275.301 316.964 276.186C315.507 277.071 312.784 277.956 310.822 278.146C308.352 278.462 306.452 278.272 304.173 277.514C302.4 276.945 300.12 275.807 299.107 274.985C298.094 274.163 296.384 272.013 295.371 270.116C293.978 267.587 293.471 265.817 293.408 259.684L273.209 247.988C262.064 241.602 252.692 236.291 252.313 236.165C251.869 236.038 251.236 240.717 250.476 249.758C249.78 257.345 249.02 265.691 248.133 273.025L259.721 293.257L263.267 293.32C265.737 293.383 267.826 293.889 270.106 295.027C272.195 296.102 274.158 297.746 275.362 299.453C276.438 300.907 277.641 303.12 278.021 304.321C278.401 305.522 278.591 308.115 278.464 310.075C278.274 312.54 277.641 314.437 276.311 316.65C275.298 318.357 273.272 320.57 271.879 321.518C270.486 322.467 267.763 323.605 265.863 324.047C262.951 324.616 261.747 324.553 258.708 323.668C255.985 322.909 254.339 321.898 252.059 319.685C250.286 317.851 248.767 315.638 248.26 314.121C247.88 312.73 247.5 310.201 247.5 308.431C247.5 306.218 248.007 304.258 250.983 298.315L240.028 279.347L205.075 279.031V295.153C205.075 307.609 205.265 311.276 205.835 311.276C206.278 311.276 207.798 312.098 209.191 313.109C210.584 314.121 212.483 316.334 213.37 317.978C214.32 319.685 215.27 322.214 215.523 323.605C215.776 325.248 215.586 327.398 214.953 329.801C214.193 332.519 213.243 334.163 210.9 336.439C208.937 338.462 206.848 339.853 204.758 340.549C202.985 341.181 200.896 341.624 200.009 341.624C199.123 341.624 196.97 341.181 195.26 340.549C193.297 339.917 190.954 338.336 189.118 336.566C186.838 334.353 185.952 332.899 185.129 329.927C184.432 327.398 184.179 325.312 184.495 323.605C184.749 322.214 185.698 319.685 186.648 317.978C187.535 316.334 189.434 314.121 190.827 313.109C192.221 312.098 193.74 311.276 194.12 311.276C194.753 311.276 194.943 307.609 194.943 279.031L159.99 279.347L149.035 298.315L150.808 301.792C152.138 304.447 152.518 306.155 152.518 309.063C152.518 311.782 152.075 313.742 150.998 316.018C150.175 317.788 148.339 320.001 147.009 321.012C145.679 322.087 143.653 323.289 142.513 323.731C141.437 324.174 138.841 324.553 136.814 324.553C134.725 324.553 132.129 324.047 130.672 323.352C129.279 322.719 127.189 321.265 125.986 320.064C124.783 318.863 123.327 316.776 122.694 315.385C121.997 313.868 121.491 311.339 121.491 309.063C121.491 306.407 121.934 304.321 122.947 302.108C123.77 300.401 125.416 298.125 126.62 297.113C127.823 296.102 129.786 294.837 130.989 294.332C132.192 293.826 134.788 293.383 140.234 293.257L151.885 273.025L151.315 267.967C150.935 265.185 150.175 256.839 149.542 249.442C148.592 238.061 148.275 236.101 147.452 236.354C146.946 236.607 137.511 241.918 106.61 259.684L106.547 263.162C106.547 265.817 106.04 267.524 104.647 270.053C103.634 271.95 101.798 274.226 100.594 275.111C99.3913 275.996 97.1118 277.134 95.5287 277.64C93.9457 278.146 91.4128 278.462 89.8298 278.336C88.2468 278.146 85.5239 277.324 83.8143 276.439C81.8513 275.427 79.8883 273.72 78.6219 272.013C77.4821 270.433 76.279 267.714 75.8358 265.754C75.2659 262.909 75.2659 261.644 76.0891 258.799C76.6589 256.902 78.052 254.184 79.2551 252.793C80.3949 251.402 82.7378 249.632 84.3208 248.873C86.3471 247.861 88.5001 247.419 90.9063 247.419C93.6924 247.419 95.4654 247.861 101.544 250.896L124.34 237.745C136.878 230.538 147.199 224.531 147.262 224.468C147.389 224.405 147.136 220.611 146.756 216.122C146.376 211.633 145.996 207.271 145.553 205.058H117.058C94.7056 205.058 88.5634 205.248 88.5634 205.88C88.5634 206.259 87.7402 207.777 86.7271 209.168C85.7139 210.559 83.4977 212.455 81.8513 213.34C80.1416 214.289 77.6088 215.237 76.2157 215.49C74.506 215.806 72.4164 215.553 69.8836 214.858C66.8441 214.036 65.4511 213.151 63.0448 210.685C60.8286 208.346 59.8155 206.702 59.0556 203.983C58.2324 200.948 58.1691 199.747 58.8023 197.155C59.1822 195.448 60.0054 193.172 60.6386 192.097C61.3352 191.022 62.8549 189.252 64.1213 188.177C65.5144 186.912 67.8573 185.711 70.0102 185.079C72.4164 184.447 74.5693 184.257 76.2157 184.51C77.6088 184.763 80.1416 185.711 81.8513 186.66C83.4977 187.545 85.7139 189.441 86.7271 190.832C87.7402 192.223 88.5634 193.741 88.5634 194.183C88.5634 194.752 94.6422 194.942 144.919 194.942L144.603 191.97C144.413 190.263 143.97 185.395 143.59 181.033C143.273 176.67 142.766 172.94 142.513 172.75C142.26 172.56 132.952 167.123 101.544 149.104L98.0616 150.874C95.4021 152.202 93.6924 152.581 90.7796 152.581C88.5001 152.581 85.9672 152.076 84.4475 151.38C83.0544 150.811 80.7748 148.978 79.3818 147.46C77.8621 145.753 76.469 143.351 75.9624 141.454C75.4558 139.683 75.2026 137.154 75.3925 135.511C75.5825 133.93 76.3423 131.527 77.0389 130.137C77.7354 128.746 79.1285 126.849 80.1416 125.9C81.0914 124.952 83.1811 123.624 84.7641 122.929C86.4104 122.17 88.9433 121.664 90.7796 121.664C92.4893 121.664 94.9588 121.981 96.1619 122.423C97.4284 122.866 99.3913 123.94 100.594 124.826C101.798 125.711 103.634 127.987 104.647 129.884C106.04 132.413 106.547 134.183 106.61 140.316L123.58 150.116C132.888 155.49 140.804 159.915 141.12 160.042C141.5 160.105 141.753 159.03 141.753 157.639C141.753 155.553 141.31 154.668 139.221 152.581C136.751 150.116 136.688 149.989 136.688 145.5C136.688 142.971 137.068 139.747 137.511 138.419C137.891 137.091 139.284 134.815 140.487 133.424C141.69 132.033 143.526 130.453 144.603 129.947C145.616 129.378 147.832 128.682 152.328 127.608L140.234 106.743L136.688 106.68C134.091 106.68 132.318 106.174 129.786 104.783C127.886 103.772 125.733 102.128 124.91 101.053C124.087 99.9783 123.01 97.8918 122.44 96.3112C121.934 94.7306 121.491 92.4545 121.491 91.2532C121.491 90.0519 121.87 87.8391 122.44 86.3849C122.947 84.8675 124.15 82.6546 125.1 81.3901C126.113 80.1256 128.393 78.4186 130.356 77.4702C132.888 76.2689 134.788 75.8263 137.321 75.8896C139.6 75.8896 141.88 76.4586 143.906 77.407C145.616 78.2289 147.706 79.7463 148.592 80.8211C149.479 81.8959 150.682 83.8559 151.315 85.2469C152.011 86.701 152.518 89.2932 152.518 91.2532C152.518 93.8454 152.075 95.6157 149.035 101.685L164.232 127.924H176.264L176.77 125.9C177.023 124.762 177.91 122.802 178.796 121.601C179.62 120.4 181.646 118.63 183.356 117.681C185.825 116.29 187.218 115.974 194.943 115.911V102.318C194.943 91.8855 194.753 88.7242 194.12 88.7242C193.74 88.7242 192.221 87.9023 190.827 86.8907C189.434 85.8791 187.535 83.6662 186.648 82.0224C185.698 80.3153 184.749 77.7863 184.495 76.3954C184.242 74.7515 184.432 72.6019 185.065 70.2626C185.762 67.7968 186.902 65.7104 188.421 64.0033C189.751 62.6123 192.221 60.7788 193.994 59.9569C195.767 59.0718 198.363 58.4395 199.819 58.3763H199.882ZM194.69 74.6251C194.69 76.2057 195.133 77.2173 196.4 78.3553C197.413 79.2405 198.996 79.8727 200.072 79.8727C201.149 79.8727 202.732 79.2405 203.682 78.3553C205.011 77.2173 205.455 76.2057 205.455 74.6251C205.455 73.1077 204.948 71.8432 203.872 70.7684C202.732 69.5671 201.655 69.1245 200.009 69.1245C198.426 69.1245 197.286 69.6303 196.21 70.7684C195.197 71.8643 194.69 73.1498 194.69 74.6251ZM132.698 88.2184C132.129 89.0403 131.685 90.4313 131.685 91.4429C131.685 92.3913 132.382 93.9087 133.205 94.9203C134.345 96.1848 135.358 96.6273 136.941 96.6273C138.461 96.6273 139.727 96.1215 140.804 95.0467C142.07 93.9087 142.45 92.8338 142.45 91.1268C142.45 89.23 142.007 88.4081 140.55 87.1436C139.474 86.2585 138.144 85.563 137.511 85.6262C136.941 85.6262 135.801 85.8791 135.105 86.1952C134.345 86.5114 133.268 87.3965 132.698 88.2184ZM257.632 91.1268C257.632 92.7706 258.138 93.9087 259.341 95.0467C260.418 96.1215 261.684 96.6273 263.204 96.6273C264.787 96.6273 265.8 96.1848 266.94 94.9203C267.826 93.9087 268.46 92.328 268.46 91.2532C268.46 90.1784 267.826 88.661 267.003 87.7758C266.243 86.8907 264.724 86.0056 263.71 85.8159C262.191 85.563 261.304 85.8159 259.658 87.1436C258.011 88.5345 257.632 89.2932 257.632 91.1268ZM200.072 127.987C212.483 127.987 213.623 127.86 212.737 126.975C211.913 126.153 209.951 125.964 200.009 126.027C190.194 126.027 188.041 126.217 187.345 126.975C186.522 127.86 187.851 127.987 200.072 127.987ZM85.7772 136.965C85.7772 138.482 86.2838 139.747 87.3603 140.822C88.5001 142.023 89.5765 142.529 91.1596 142.529C92.7426 142.529 93.819 142.023 94.9588 140.822C96.0353 139.747 96.5419 138.482 96.5419 136.965C96.5419 135.384 96.0986 134.373 94.7689 133.235C93.8191 132.349 92.236 131.717 91.2229 131.717C90.1464 131.717 88.5634 132.413 87.5502 133.235C86.2205 134.309 85.7772 135.258 85.7772 136.965ZM303.603 136.965C303.603 138.482 304.109 139.747 305.186 140.822C306.326 142.023 307.402 142.529 308.985 142.529C310.568 142.529 311.645 142.023 312.784 140.822C313.861 139.747 314.368 138.482 314.368 136.965C314.368 135.384 313.924 134.373 312.658 133.235C311.645 132.349 310.062 131.717 309.049 131.717C307.972 131.717 306.389 132.413 305.376 133.235C304.046 134.309 303.603 135.258 303.603 136.965ZM147.642 140.505C147.199 141.264 146.882 142.402 146.882 143.098C146.882 144.362 147.326 144.362 200.072 144.362C252.819 144.362 253.262 144.362 253.262 143.098C253.262 142.402 253.072 141.391 252.819 140.822C252.502 140.252 251.553 139.367 250.603 138.925C249.146 138.166 239.902 138.04 199.946 138.103C173.034 138.103 150.428 138.356 149.732 138.672C148.972 138.988 148.085 139.81 147.642 140.505ZM156.507 210.622C159.167 241.476 161.383 267.208 161.383 267.84C161.446 268.852 163.726 268.915 200.072 268.915C236.419 268.915 238.698 268.852 238.762 267.84C238.762 267.208 240.978 241.476 243.638 210.622L248.513 154.478H151.631L156.507 210.622ZM70.3901 196.459C69.4403 197.408 68.9337 198.546 68.9337 200.063C68.9337 201.581 69.4403 202.719 70.6434 203.857C71.7199 204.868 72.9863 205.437 74.506 205.437C76.0891 205.437 77.1022 204.932 78.242 203.667C79.1285 202.655 79.7617 201.138 79.7617 200C79.7617 198.925 79.1285 197.471 78.3053 196.586C77.5454 195.701 76.2157 194.879 75.3292 194.689C74.4427 194.563 73.3029 194.563 72.7963 194.752C72.2898 194.942 71.2133 195.764 70.3901 196.459ZM321.396 196.965C320.826 197.787 320.383 199.241 320.383 200.19C320.383 201.138 321.08 202.719 321.903 203.667C323.043 204.932 324.056 205.437 325.639 205.437C327.158 205.437 328.425 204.868 329.501 203.857C330.704 202.719 331.148 201.581 331.148 200.063C331.19 198.546 330.726 197.345 329.755 196.459C328.931 195.701 327.602 194.942 326.715 194.752C325.829 194.563 324.499 194.626 323.802 194.942C323.043 195.258 321.966 196.207 321.396 196.965ZM85.7139 263.541C85.9039 264.616 86.7904 266.133 87.6769 266.892C88.5634 267.714 90.0831 268.346 91.1596 268.346C92.236 268.346 93.7557 267.651 94.7689 266.765C96.0986 265.691 96.5419 264.679 96.5419 263.035C96.5419 261.518 96.0353 260.317 94.9588 259.178C93.819 257.977 92.7426 257.535 91.0329 257.535C89.1966 257.535 88.3734 257.977 87.0437 259.621C85.7139 261.202 85.3973 262.087 85.7139 263.604V263.541ZM303.603 262.972C303.603 264.616 304.046 265.627 305.313 266.702C306.326 267.587 307.909 268.283 308.985 268.283C310.062 268.283 311.581 267.651 312.468 266.829C313.354 266.07 314.241 264.553 314.431 263.541C314.747 262.024 314.431 261.138 313.164 259.558C311.835 257.914 311.075 257.535 309.112 257.535C307.276 257.535 306.262 257.914 305.123 259.115C304.109 260.211 303.603 261.497 303.603 262.972ZM132.698 305.649C132.129 306.471 131.685 307.925 131.685 308.873C131.685 309.822 132.382 311.402 133.205 312.351C134.345 313.615 135.358 314.121 136.941 314.121C138.461 314.121 139.727 313.552 140.804 312.54C142.007 311.402 142.45 310.264 142.45 308.747C142.492 307.229 142.028 306.028 141.057 305.143C140.234 304.384 138.904 303.626 138.017 303.436C137.131 303.246 135.801 303.309 135.105 303.626C134.345 303.942 133.268 304.89 132.698 305.649ZM259.088 305.143C258.138 306.091 257.632 307.229 257.632 308.747C257.632 310.264 258.138 311.402 259.341 312.54C260.418 313.552 261.684 314.121 263.204 314.121C264.787 314.121 265.8 313.615 266.94 312.351C267.826 311.339 268.46 309.822 268.46 308.747C268.46 307.609 267.826 306.155 267.003 305.269C266.243 304.384 264.914 303.562 264.027 303.373C263.141 303.246 262.001 303.246 261.494 303.436C260.988 303.626 259.911 304.447 259.088 305.143ZM194.69 325.312C194.69 326.892 195.197 328.094 196.273 329.232C197.413 330.37 198.489 330.875 200.072 330.875C201.655 330.875 202.732 330.37 203.872 329.232C204.948 328.094 205.455 326.892 205.455 325.375C205.455 323.731 205.011 322.719 203.682 321.645C202.732 320.76 201.149 320.127 200.136 320.127C199.059 320.127 197.476 320.76 196.463 321.581C195.133 322.719 194.69 323.668 194.69 325.312ZM169.361 167.692C170.248 167.755 171.514 168.008 172.211 168.388C172.907 168.704 173.731 169.462 174.047 170.095C174.364 170.727 175.82 189.252 177.213 211.38C179.556 247.482 179.746 251.655 178.86 252.919C178.353 253.678 177.277 254.69 176.453 255.069C175.44 255.575 174.554 255.575 173.161 255.069C172.084 254.69 170.881 253.741 170.501 252.919C169.931 251.971 168.792 237.872 167.145 212.013C165.752 190.263 164.612 172.118 164.612 171.675C164.676 171.169 165.372 170.158 166.195 169.273C167.019 168.451 168.475 167.755 169.361 167.755V167.692ZM200.072 167.692C201.275 167.692 202.542 168.261 205.138 170.853V251.781L203.302 253.678C202.289 254.69 200.832 255.575 200.136 255.575C199.376 255.575 197.919 254.69 195.007 251.781L195.07 170.79L196.59 169.209C197.54 168.261 198.806 167.692 200.072 167.692ZM230.593 167.692C231.67 167.692 233 168.324 233.949 169.273C234.836 170.095 235.532 171.169 235.532 171.612C235.532 172.055 234.393 190.2 233 211.95C231.353 237.808 230.213 251.908 229.643 252.856C229.264 253.678 227.997 254.626 226.984 255.006C225.591 255.511 224.704 255.511 223.628 255.006C222.868 254.626 221.792 253.615 221.285 252.856C220.399 251.592 220.589 247.355 222.931 211.317C224.388 188.303 225.781 170.664 226.161 170.031C226.541 169.462 227.301 168.704 227.87 168.324C228.44 168.008 229.643 167.692 230.593 167.692Z" fill="white"/>
</svg>
