<svg width="1840" height="400" viewBox="0 0 1840 400" fill="none" xmlns="http://www.w3.org/2000/svg">
<circle cx="200" cy="200" r="200" fill="#4CAF50"/>
<path d="M1836.52 136.208V176.035H1721.39V136.208H1836.52ZM1747.53 90.407H1800.55V268.632C1800.55 273.528 1801.29 277.344 1802.79 280.082C1804.28 282.738 1806.35 284.604 1809.01 285.683C1811.75 286.762 1814.9 287.301 1818.47 287.301C1820.96 287.301 1823.45 287.094 1825.94 286.679C1828.43 286.181 1830.33 285.807 1831.66 285.559L1840 325.012C1837.34 325.842 1833.61 326.796 1828.8 327.875C1823.99 329.036 1818.14 329.741 1811.25 329.99C1798.47 330.488 1787.27 328.787 1777.65 324.888C1768.1 320.988 1760.68 314.931 1755.37 306.717C1750.06 298.502 1747.44 288.131 1747.53 275.602V90.407Z" fill="#4CAF50"/>
<path d="M1581.84 327.377V136.208H1633.24V169.563H1635.23C1638.72 157.698 1644.57 148.737 1652.78 142.68C1661 136.54 1670.46 133.47 1681.16 133.47C1683.81 133.47 1686.68 133.636 1689.75 133.968C1692.82 134.299 1695.51 134.756 1697.84 135.337V182.382C1695.35 181.635 1691.9 180.972 1687.51 180.391C1683.11 179.81 1679.09 179.52 1675.43 179.52C1667.64 179.52 1660.67 181.22 1654.53 184.622C1648.47 187.941 1643.66 192.588 1640.09 198.562C1636.6 204.536 1634.86 211.422 1634.86 219.222V327.377H1581.84Z" fill="#4CAF50"/>
<path d="M1453.27 331.111C1433.94 331.111 1417.22 327.003 1403.12 318.789C1389.1 310.492 1378.27 298.959 1370.63 284.19C1363 269.337 1359.18 252.121 1359.18 232.539C1359.18 212.792 1363 195.533 1370.63 180.764C1378.27 165.912 1389.1 154.379 1403.12 146.165C1417.22 137.867 1433.94 133.719 1453.27 133.719C1472.61 133.719 1489.29 137.867 1503.31 146.165C1517.41 154.379 1528.28 165.912 1535.92 180.764C1543.55 195.533 1547.37 212.792 1547.37 232.539C1547.37 252.121 1543.55 269.337 1535.92 284.19C1528.28 298.959 1517.41 310.492 1503.31 318.789C1489.29 327.003 1472.61 331.111 1453.27 331.111ZM1453.52 290.039C1462.32 290.039 1469.66 287.55 1475.55 282.572C1481.44 277.51 1485.88 270.623 1488.87 261.911C1491.94 253.199 1493.48 243.284 1493.48 232.166C1493.48 221.047 1491.94 211.132 1488.87 202.42C1485.88 193.708 1481.44 186.821 1475.55 181.76C1469.66 176.698 1462.32 174.168 1453.52 174.168C1444.65 174.168 1437.18 176.698 1431.12 181.76C1425.15 186.821 1420.63 193.708 1417.56 202.42C1414.57 211.132 1413.07 221.047 1413.07 232.166C1413.07 243.284 1414.57 253.199 1417.56 261.911C1420.63 270.623 1425.15 277.51 1431.12 282.572C1437.18 287.55 1444.65 290.039 1453.52 290.039Z" fill="#4CAF50"/>
<path d="M1276.51 145.791C1275.52 135.751 1271.24 127.952 1263.69 122.393C1256.14 116.834 1245.9 114.054 1232.95 114.054C1224.16 114.054 1216.73 115.299 1210.67 117.788C1204.62 120.194 1199.97 123.555 1196.73 127.869C1193.58 132.184 1192 137.079 1192 142.555C1191.84 147.119 1192.79 151.101 1194.87 154.503C1197.02 157.905 1199.97 160.851 1203.7 163.34C1207.44 165.746 1211.75 167.862 1216.65 169.687C1221.54 171.43 1226.77 172.923 1232.33 174.168L1255.23 179.644C1266.35 182.133 1276.55 185.452 1285.85 189.601C1295.14 193.749 1303.19 198.852 1309.99 204.909C1316.8 210.966 1322.06 218.102 1325.8 226.316C1329.61 234.53 1331.56 243.948 1331.65 254.568C1331.56 270.167 1327.58 283.692 1319.7 295.142C1311.9 306.509 1300.62 315.346 1285.85 321.652C1271.16 327.875 1253.45 330.986 1232.7 330.986C1212.13 330.986 1194.2 327.833 1178.94 321.527C1163.75 315.221 1151.89 305.887 1143.34 293.524C1134.88 281.078 1130.44 265.687 1130.02 247.35H1182.17C1182.75 255.896 1185.2 263.031 1189.52 268.757C1193.91 274.399 1199.76 278.672 1207.06 281.576C1214.45 284.397 1222.79 285.807 1232.08 285.807C1241.21 285.807 1249.13 284.48 1255.85 281.825C1262.66 279.17 1267.92 275.477 1271.66 270.748C1275.39 266.019 1277.26 260.584 1277.26 254.444C1277.26 248.719 1275.56 243.906 1272.16 240.007C1268.84 236.107 1263.94 232.788 1257.47 230.05C1251.08 227.312 1243.24 224.823 1233.95 222.582L1206.19 215.613C1184.7 210.385 1167.74 202.213 1155.29 191.094C1142.84 179.976 1136.66 164.999 1136.75 146.165C1136.66 130.732 1140.77 117.249 1149.07 105.715C1157.45 94.1822 1168.94 85.1797 1183.54 78.7078C1198.14 72.2359 1214.74 69 1233.33 69C1252.24 69 1268.75 72.2359 1282.86 78.7078C1297.05 85.1797 1308.08 94.1822 1315.97 105.715C1323.85 117.249 1327.91 130.607 1328.16 145.791H1276.51Z" fill="#4CAF50"/>
<path d="M1008.68 331.111C989.344 331.111 972.625 327.003 958.52 318.789C944.497 310.492 933.67 298.959 926.036 284.19C918.403 269.337 914.586 252.121 914.586 232.539C914.586 212.792 918.403 195.533 926.036 180.764C933.67 165.912 944.497 154.379 958.52 146.165C972.625 137.867 989.344 133.719 1008.68 133.719C1028.01 133.719 1044.69 137.867 1058.71 146.165C1072.81 154.379 1083.68 165.912 1091.32 180.764C1098.95 195.533 1102.77 212.792 1102.77 232.539C1102.77 252.121 1098.95 269.337 1091.32 284.19C1083.68 298.959 1072.81 310.492 1058.71 318.789C1044.69 327.003 1028.01 331.111 1008.68 331.111ZM1008.93 290.039C1017.72 290.039 1025.06 287.55 1030.95 282.572C1036.85 277.51 1041.29 270.623 1044.27 261.911C1047.34 253.199 1048.88 243.284 1048.88 232.166C1048.88 221.047 1047.34 211.132 1044.27 202.42C1041.29 193.708 1036.85 186.821 1030.95 181.76C1025.06 176.698 1017.72 174.168 1008.93 174.168C1000.05 174.168 992.58 176.698 986.523 181.76C980.549 186.821 976.027 193.708 972.957 202.42C969.97 211.132 968.477 221.047 968.477 232.166C968.477 243.284 969.97 253.199 972.957 261.911C976.027 270.623 980.549 277.51 986.523 282.572C992.58 287.55 1000.05 290.039 1008.93 290.039Z" fill="#4CAF50"/>
<path d="M802.977 331.111C783.396 331.111 766.552 326.962 752.447 318.665C738.425 310.284 727.638 298.668 720.088 283.816C712.62 268.964 708.886 251.872 708.886 232.539C708.886 212.958 712.662 195.782 720.212 181.013C727.846 166.161 738.673 154.586 752.696 146.289C766.718 137.909 783.396 133.719 802.728 133.719C819.406 133.719 834.009 136.747 846.538 142.804C859.067 148.861 868.982 157.366 876.284 168.318C883.585 179.271 887.609 192.131 888.356 206.901H838.324C836.913 197.359 833.179 189.684 827.122 183.876C821.148 177.985 813.307 175.039 803.6 175.039C795.385 175.039 788.208 177.279 782.068 181.76C776.011 186.157 771.282 192.588 767.88 201.051C764.478 209.514 762.777 219.761 762.777 231.792C762.777 243.989 764.436 254.361 767.755 262.907C771.157 271.453 775.928 277.967 782.068 282.447C788.208 286.928 795.385 289.168 803.6 289.168C809.657 289.168 815.091 287.923 819.904 285.434C824.799 282.945 828.823 279.336 831.976 274.606C835.212 269.794 837.328 264.027 838.324 257.306H888.356C887.526 271.91 883.544 284.77 876.408 295.889C869.355 306.924 859.606 315.553 847.16 321.776C834.714 327.999 819.987 331.111 802.977 331.111Z" fill="#4CAF50"/>
<path d="M503 327.377V72.4848H674.753V116.917H556.891V177.653H665.917V222.084H556.891V282.945H675.251V327.377H503Z" fill="#4CAF50"/>
<path fill-rule="evenodd" clip-rule="evenodd" d="M199.882 58.3763C201.402 58.3763 203.935 59.0085 205.835 59.8937C207.734 60.7788 210.267 62.6123 211.597 64.193C213.117 65.8368 214.383 68.2394 214.953 70.389C215.586 72.6019 215.776 74.7515 215.523 76.3954C215.269 77.7863 214.32 80.3153 213.37 82.0224C212.483 83.6662 210.584 85.8791 209.191 86.8907C207.798 87.9023 206.278 88.7242 205.835 88.7242C205.265 88.7242 205.075 91.8855 205.075 115.911H209.317C212.8 115.974 214.193 116.29 216.663 117.681C218.372 118.63 220.398 120.4 221.222 121.601C222.108 122.802 222.995 124.762 223.755 127.924H235.786L250.983 101.749L249.21 98.2712C247.627 95.1732 247.437 94.1616 247.627 90.2416C247.753 86.5746 248.133 85.2468 249.78 82.6546C250.919 80.7579 252.819 78.8611 254.782 77.6599C257.505 75.9528 258.391 75.7631 263.014 75.7631C267.7 75.7631 268.459 75.9528 271.309 77.7231C273.209 78.8611 275.108 80.7579 276.311 82.7179C277.894 85.3101 278.211 86.5113 278.401 90.5577C278.528 94.7938 278.338 95.7422 276.818 98.5241C275.868 100.231 273.905 102.507 272.512 103.582C271.056 104.72 268.523 105.921 266.496 106.364C264.597 106.743 262.317 106.996 261.431 106.807C259.974 106.427 259.468 107.123 247.69 127.608L251.553 128.493C254.845 129.251 255.922 129.884 258.581 132.602C260.544 134.562 262.064 136.838 262.571 138.356C262.95 139.747 263.33 142.971 263.33 145.437C263.33 149.989 263.267 150.116 260.798 152.581C258.708 154.668 258.265 155.553 258.265 157.639C258.265 159.03 258.518 160.105 258.898 159.979C259.215 159.915 267.13 155.49 293.408 140.316L293.471 136.838C293.471 134.436 293.978 132.349 294.928 130.453C295.751 128.872 297.017 126.912 297.714 126.09C298.474 125.268 300.5 123.94 302.273 123.119C304.489 122.044 306.579 121.601 309.238 121.601C311.518 121.601 314.051 122.107 315.571 122.802C316.964 123.371 319.243 125.205 320.636 126.786C322.029 128.303 323.549 130.706 323.929 132.096C324.372 133.424 324.752 135.7 324.752 137.091C324.752 138.482 324.372 140.758 323.929 142.086C323.549 143.477 322.029 145.88 320.636 147.397C319.243 148.978 316.964 150.811 315.571 151.38C314.051 152.076 311.518 152.581 309.238 152.581C306.326 152.581 304.616 152.202 298.41 149.104L278.464 160.611C267.51 166.933 258.265 172.307 257.821 172.624C257.378 172.94 256.808 176.227 256.365 181.033C256.048 185.395 255.605 190.263 255.099 194.942H283.277C305.376 194.942 311.455 194.752 311.455 194.12C311.455 193.741 312.278 192.223 313.291 190.832C314.304 189.441 316.52 187.545 318.167 186.66C319.876 185.711 322.409 184.763 323.802 184.51C325.449 184.257 327.602 184.447 329.945 185.079C332.604 185.838 334.377 186.849 336.403 188.746C338.219 190.558 339.59 192.729 340.519 195.258C341.532 197.914 341.786 199.684 341.532 201.264C341.279 202.466 340.519 204.868 339.759 206.575C338.999 208.282 337.353 210.559 336.15 211.57C334.947 212.645 332.921 213.909 331.718 214.415C330.514 214.921 327.792 215.364 325.702 215.364C322.663 215.364 321.206 214.984 318.483 213.53C316.33 212.392 314.431 210.685 313.291 208.978C312.278 207.524 311.455 206.07 311.455 205.69C311.455 205.248 301.513 205.058 254.465 205.058L254.212 206.449C254.022 207.271 253.642 211.633 253.262 216.122C252.882 220.611 252.629 224.405 252.756 224.468C252.819 224.531 263.14 230.474 298.474 250.896L301.956 249.126C304.553 247.861 306.326 247.419 309.048 247.419C311.075 247.419 313.798 247.861 315.064 248.43C316.394 248.936 318.42 250.264 319.56 251.402C320.763 252.54 322.283 254.563 322.979 255.954C323.676 257.345 324.436 259.748 324.626 261.328C324.815 263.162 324.562 265.311 323.866 267.334C323.296 269.105 322.093 271.444 321.269 272.582C320.383 273.657 318.483 275.301 316.964 276.186C315.507 277.071 312.784 277.956 310.821 278.146C308.352 278.462 306.452 278.272 304.173 277.514C302.4 276.945 300.12 275.807 299.107 274.985C298.094 274.163 296.384 272.013 295.371 270.116C293.978 267.587 293.471 265.817 293.408 259.684L273.209 247.988C262.064 241.602 252.692 236.291 252.312 236.165C251.869 236.038 251.236 240.717 250.476 249.758C249.78 257.345 249.02 265.691 248.133 273.025L259.721 293.257L263.267 293.32C265.737 293.383 267.826 293.889 270.106 295.027C272.195 296.102 274.158 297.746 275.361 299.453C276.438 300.907 277.641 303.12 278.021 304.321C278.401 305.522 278.591 308.115 278.464 310.075C278.274 312.54 277.641 314.437 276.311 316.65C275.298 318.357 273.272 320.57 271.879 321.518C270.486 322.467 267.763 323.605 265.863 324.047C262.95 324.616 261.747 324.553 258.708 323.668C255.985 322.909 254.339 321.898 252.059 319.685C250.286 317.851 248.766 315.638 248.26 314.121C247.88 312.73 247.5 310.201 247.5 308.431C247.5 306.218 248.007 304.258 250.983 298.315L240.028 279.347L205.075 279.031V295.153C205.075 307.609 205.265 311.276 205.835 311.276C206.278 311.276 207.798 312.098 209.191 313.109C210.584 314.121 212.483 316.334 213.37 317.978C214.32 319.685 215.269 322.214 215.523 323.605C215.776 325.248 215.586 327.398 214.953 329.801C214.193 332.519 213.243 334.163 210.9 336.439C208.937 338.462 206.848 339.853 204.758 340.549C202.985 341.181 200.895 341.624 200.009 341.624C199.122 341.624 196.97 341.181 195.26 340.549C193.297 339.917 190.954 338.336 189.118 336.566C186.838 334.353 185.952 332.899 185.128 329.927C184.432 327.398 184.179 325.312 184.495 323.605C184.749 322.214 185.698 319.685 186.648 317.978C187.535 316.334 189.434 314.121 190.827 313.109C192.22 312.098 193.74 311.276 194.12 311.276C194.753 311.276 194.943 307.609 194.943 279.031L159.99 279.347L149.035 298.315L150.808 301.792C152.138 304.447 152.518 306.155 152.518 309.063C152.518 311.782 152.075 313.742 150.998 316.018C150.175 317.788 148.339 320.001 147.009 321.012C145.679 322.087 143.653 323.289 142.513 323.731C141.437 324.174 138.841 324.553 136.814 324.553C134.725 324.553 132.128 324.047 130.672 323.352C129.279 322.719 127.189 321.265 125.986 320.064C124.783 318.863 123.327 316.776 122.694 315.385C121.997 313.868 121.49 311.339 121.49 309.063C121.49 306.407 121.934 304.321 122.947 302.108C123.77 300.401 125.416 298.125 126.619 297.113C127.823 296.102 129.786 294.837 130.989 294.332C132.192 293.826 134.788 293.383 140.234 293.257L151.885 273.025L151.315 267.967C150.935 265.185 150.175 256.839 149.542 249.442C148.592 238.061 148.275 236.101 147.452 236.354C146.946 236.607 137.511 241.918 106.61 259.684L106.547 263.162C106.547 265.817 106.04 267.524 104.647 270.053C103.634 271.95 101.797 274.226 100.594 275.111C99.3913 275.996 97.1117 277.134 95.5287 277.64C93.9456 278.146 91.4128 278.462 89.8297 278.336C88.2467 278.146 85.5239 277.324 83.8142 276.439C81.8512 275.427 79.8883 273.72 78.6219 272.013C77.4821 270.433 76.279 267.714 75.8357 265.754C75.2658 262.909 75.2658 261.644 76.089 258.799C76.6589 256.902 78.052 254.184 79.2551 252.793C80.3949 251.402 82.7377 249.632 84.3208 248.873C86.3471 247.861 88.5 247.419 90.9062 247.419C93.6923 247.419 95.4653 247.861 101.544 250.896L124.34 237.745C136.878 230.538 147.199 224.531 147.262 224.468C147.389 224.405 147.136 220.611 146.756 216.122C146.376 211.633 145.996 207.271 145.553 205.058H117.058C94.7055 205.058 88.5633 205.248 88.5633 205.88C88.5633 206.259 87.7401 207.777 86.727 209.168C85.7138 210.559 83.4976 212.455 81.8512 213.34C80.1416 214.289 77.6087 215.237 76.2156 215.49C74.506 215.806 72.4164 215.553 69.8835 214.858C66.8441 214.036 65.451 213.151 63.0448 210.685C60.8285 208.346 59.8154 206.702 59.0555 203.983C58.2324 200.948 58.169 199.747 58.8022 197.155C59.1822 195.448 60.0054 193.172 60.6386 192.097C61.3351 191.022 62.8548 189.252 64.1212 188.177C65.5143 186.912 67.8572 185.711 70.0101 185.079C72.4164 184.447 74.5693 184.257 76.2156 184.51C77.6087 184.763 80.1416 185.711 81.8512 186.66C83.4976 187.545 85.7138 189.441 86.727 190.832C87.7401 192.223 88.5633 193.741 88.5633 194.183C88.5633 194.752 94.6422 194.942 144.919 194.942L144.603 191.97C144.413 190.263 143.97 185.395 143.59 181.033C143.273 176.67 142.766 172.94 142.513 172.75C142.26 172.56 132.952 167.123 101.544 149.104L98.0615 150.874C95.402 152.202 93.6923 152.581 90.7796 152.581C88.5 152.581 85.9671 152.076 84.4474 151.38C83.0543 150.811 80.7748 148.978 79.3817 147.46C77.862 145.753 76.4689 143.351 75.9624 141.454C75.4558 139.683 75.2025 137.154 75.3925 135.511C75.5824 133.93 76.3423 131.527 77.0388 130.137C77.7354 128.746 79.1284 126.849 80.1416 125.9C81.0914 124.952 83.181 123.624 84.764 122.929C86.4104 122.17 88.9432 121.664 90.7796 121.664C92.4892 121.664 94.9588 121.981 96.1619 122.423C97.4283 122.866 99.3913 123.94 100.594 124.826C101.797 125.711 103.634 127.987 104.647 129.884C106.04 132.413 106.547 134.183 106.61 140.316L123.58 150.116C132.888 155.49 140.803 159.915 141.12 160.042C141.5 160.105 141.753 159.03 141.753 157.639C141.753 155.553 141.31 154.668 139.22 152.581C136.751 150.116 136.688 149.989 136.688 145.5C136.688 142.971 137.068 139.747 137.511 138.419C137.891 137.091 139.284 134.815 140.487 133.424C141.69 132.033 143.526 130.453 144.603 129.947C145.616 129.378 147.832 128.682 152.328 127.608L140.234 106.743L136.688 106.68C134.091 106.68 132.318 106.174 129.786 104.783C127.886 103.772 125.733 102.128 124.91 101.053C124.087 99.9782 123.01 97.8918 122.44 96.3112C121.934 94.7306 121.49 92.4545 121.49 91.2532C121.49 90.0519 121.87 87.8391 122.44 86.3849C122.947 84.8675 124.15 82.6546 125.1 81.3901C126.113 80.1256 128.392 78.4186 130.355 77.4702C132.888 76.2689 134.788 75.8263 137.321 75.8896C139.6 75.8896 141.88 76.4586 143.906 77.407C145.616 78.2289 147.706 79.7463 148.592 80.8211C149.479 81.8959 150.682 83.8559 151.315 85.2468C152.011 86.701 152.518 89.2932 152.518 91.2532C152.518 93.8454 152.075 95.6157 149.035 101.685L164.232 127.924H176.263L176.77 125.9C177.023 124.762 177.91 122.802 178.796 121.601C179.619 120.4 181.646 118.63 183.355 117.681C185.825 116.29 187.218 115.974 194.943 115.911V102.318C194.943 91.8855 194.753 88.7242 194.12 88.7242C193.74 88.7242 192.22 87.9023 190.827 86.8907C189.434 85.8791 187.535 83.6662 186.648 82.0224C185.698 80.3153 184.749 77.7863 184.495 76.3954C184.242 74.7515 184.432 72.6019 185.065 70.2626C185.762 67.7968 186.901 65.7104 188.421 64.0033C189.751 62.6123 192.22 60.7788 193.993 59.9569C195.766 59.0717 198.363 58.4395 199.819 58.3763H199.882ZM194.69 74.6251C194.69 76.2057 195.133 77.2173 196.4 78.3553C197.413 79.2405 198.996 79.8727 200.072 79.8727C201.149 79.8727 202.732 79.2405 203.682 78.3553C205.011 77.2173 205.455 76.2057 205.455 74.6251C205.455 73.1077 204.948 71.8432 203.872 70.7683C202.732 69.5671 201.655 69.1245 200.009 69.1245C198.426 69.1245 197.286 69.6303 196.21 70.7683C195.197 71.8642 194.69 73.1498 194.69 74.6251ZM132.698 88.2184C132.128 89.0403 131.685 90.4313 131.685 91.4429C131.685 92.3913 132.382 93.9087 133.205 94.9203C134.345 96.1848 135.358 96.6273 136.941 96.6273C138.461 96.6273 139.727 96.1215 140.803 95.0467C142.07 93.9087 142.45 92.8338 142.45 91.1268C142.45 89.23 142.007 88.4081 140.55 87.1436C139.474 86.2584 138.144 85.563 137.511 85.6262C136.941 85.6262 135.801 85.8791 135.105 86.1952C134.345 86.5113 133.268 87.3965 132.698 88.2184ZM257.631 91.1268C257.631 92.7706 258.138 93.9087 259.341 95.0467C260.418 96.1215 261.684 96.6273 263.204 96.6273C264.787 96.6273 265.8 96.1848 266.94 94.9203C267.826 93.9087 268.459 92.328 268.459 91.2532C268.459 90.1784 267.826 88.661 267.003 87.7758C266.243 86.8907 264.723 86.0055 263.71 85.8159C262.191 85.563 261.304 85.8159 259.658 87.1436C258.011 88.5345 257.631 89.2932 257.631 91.1268ZM200.072 127.987C212.483 127.987 213.623 127.86 212.737 126.975C211.913 126.153 209.95 125.964 200.009 126.027C190.194 126.027 188.041 126.217 187.345 126.975C186.522 127.86 187.851 127.987 200.072 127.987ZM85.7772 136.965C85.7772 138.482 86.2837 139.747 87.3602 140.822C88.5 142.023 89.5765 142.529 91.1595 142.529C92.7425 142.529 93.819 142.023 94.9588 140.822C96.0352 139.747 96.5418 138.482 96.5418 136.965C96.5418 135.384 96.0986 134.373 94.7688 133.235C93.819 132.349 92.236 131.717 91.2228 131.717C90.1463 131.717 88.5633 132.413 87.5502 133.235C86.2204 134.309 85.7772 135.258 85.7772 136.965ZM303.603 136.965C303.603 138.482 304.109 139.747 305.186 140.822C306.326 142.023 307.402 142.529 308.985 142.529C310.568 142.529 311.645 142.023 312.784 140.822C313.861 139.747 314.367 138.482 314.367 136.965C314.367 135.384 313.924 134.373 312.658 133.235C311.645 132.349 310.062 131.717 309.048 131.717C307.972 131.717 306.389 132.413 305.376 133.235C304.046 134.309 303.603 135.258 303.603 136.965ZM147.642 140.505C147.199 141.264 146.882 142.402 146.882 143.098C146.882 144.362 147.326 144.362 200.072 144.362C252.819 144.362 253.262 144.362 253.262 143.098C253.262 142.402 253.072 141.391 252.819 140.822C252.502 140.252 251.553 139.367 250.603 138.925C249.146 138.166 239.901 138.04 199.946 138.103C173.034 138.103 150.428 138.356 149.732 138.672C148.972 138.988 148.085 139.81 147.642 140.505ZM156.507 210.622C159.167 241.476 161.383 267.208 161.383 267.84C161.446 268.852 163.726 268.915 200.072 268.915C236.419 268.915 238.698 268.852 238.762 267.84C238.762 267.208 240.978 241.476 243.637 210.622L248.513 154.478H151.631L156.507 210.622ZM70.3901 196.459C69.4402 197.408 68.9337 198.546 68.9337 200.063C68.9337 201.581 69.4402 202.719 70.6434 203.857C71.7198 204.868 72.9862 205.437 74.506 205.437C76.089 205.437 77.1021 204.932 78.2419 203.667C79.1284 202.655 79.7616 201.138 79.7616 200C79.7616 198.925 79.1284 197.471 78.3052 196.586C77.5454 195.701 76.2156 194.879 75.3291 194.689C74.4426 194.563 73.3029 194.563 72.7963 194.752C72.2897 194.942 71.2132 195.764 70.3901 196.459ZM321.396 196.965C320.826 197.787 320.383 199.241 320.383 200.19C320.383 201.138 321.08 202.719 321.903 203.667C323.042 204.932 324.056 205.437 325.639 205.437C327.158 205.437 328.425 204.868 329.501 203.857C330.704 202.719 331.148 201.581 331.148 200.063C331.19 198.546 330.725 197.345 329.755 196.459C328.931 195.701 327.602 194.942 326.715 194.752C325.829 194.563 324.499 194.626 323.802 194.942C323.042 195.258 321.966 196.207 321.396 196.965ZM85.7138 263.541C85.9038 264.616 86.7903 266.133 87.6768 266.892C88.5633 267.714 90.083 268.346 91.1595 268.346C92.236 268.346 93.7557 267.651 94.7688 266.765C96.0986 265.691 96.5418 264.679 96.5418 263.035C96.5418 261.518 96.0352 260.317 94.9588 259.178C93.819 257.977 92.7425 257.535 91.0328 257.535C89.1965 257.535 88.3733 257.977 87.0436 259.621C85.7138 261.202 85.3972 262.087 85.7138 263.604V263.541ZM303.603 262.972C303.603 264.616 304.046 265.627 305.312 266.702C306.326 267.587 307.909 268.283 308.985 268.283C310.062 268.283 311.581 267.651 312.468 266.829C313.354 266.07 314.241 264.553 314.431 263.541C314.747 262.024 314.431 261.138 313.164 259.558C311.835 257.914 311.075 257.535 309.112 257.535C307.275 257.535 306.262 257.914 305.123 259.115C304.109 260.211 303.603 261.497 303.603 262.972ZM132.698 305.649C132.128 306.471 131.685 307.925 131.685 308.873C131.685 309.822 132.382 311.402 133.205 312.351C134.345 313.615 135.358 314.121 136.941 314.121C138.461 314.121 139.727 313.552 140.803 312.54C142.007 311.402 142.45 310.264 142.45 308.747C142.492 307.229 142.028 306.028 141.057 305.143C140.234 304.384 138.904 303.626 138.017 303.436C137.131 303.246 135.801 303.309 135.105 303.626C134.345 303.942 133.268 304.89 132.698 305.649ZM259.088 305.143C258.138 306.091 257.631 307.229 257.631 308.747C257.631 310.264 258.138 311.402 259.341 312.54C260.418 313.552 261.684 314.121 263.204 314.121C264.787 314.121 265.8 313.615 266.94 312.351C267.826 311.339 268.459 309.822 268.459 308.747C268.459 307.609 267.826 306.155 267.003 305.269C266.243 304.384 264.913 303.562 264.027 303.373C263.14 303.246 262.001 303.246 261.494 303.436C260.988 303.626 259.911 304.447 259.088 305.143ZM194.69 325.312C194.69 326.892 195.197 328.094 196.273 329.232C197.413 330.37 198.489 330.875 200.072 330.875C201.655 330.875 202.732 330.37 203.872 329.232C204.948 328.094 205.455 326.892 205.455 325.375C205.455 323.731 205.011 322.719 203.682 321.645C202.732 320.76 201.149 320.127 200.136 320.127C199.059 320.127 197.476 320.76 196.463 321.581C195.133 322.719 194.69 323.668 194.69 325.312ZM169.361 167.692C170.248 167.755 171.514 168.008 172.211 168.388C172.907 168.704 173.731 169.462 174.047 170.095C174.364 170.727 175.82 189.252 177.213 211.38C179.556 247.482 179.746 251.655 178.86 252.919C178.353 253.678 177.277 254.69 176.453 255.069C175.44 255.575 174.554 255.575 173.161 255.069C172.084 254.69 170.881 253.741 170.501 252.919C169.931 251.971 168.792 237.872 167.145 212.013C165.752 190.263 164.612 172.118 164.612 171.675C164.676 171.169 165.372 170.158 166.195 169.273C167.019 168.451 168.475 167.755 169.361 167.755V167.692ZM200.072 167.692C201.275 167.692 202.542 168.261 205.138 170.853V251.781L203.302 253.678C202.289 254.69 200.832 255.575 200.136 255.575C199.376 255.575 197.919 254.69 195.007 251.781L195.07 170.79L196.59 169.209C197.539 168.261 198.806 167.692 200.072 167.692ZM230.593 167.692C231.67 167.692 232.999 168.324 233.949 169.273C234.836 170.095 235.532 171.169 235.532 171.612C235.532 172.055 234.393 190.2 232.999 211.949C231.353 237.808 230.213 251.908 229.643 252.856C229.263 253.678 227.997 254.626 226.984 255.006C225.591 255.511 224.704 255.511 223.628 255.006C222.868 254.626 221.792 253.615 221.285 252.856C220.398 251.591 220.588 247.355 222.931 211.317C224.388 188.303 225.781 170.664 226.161 170.031C226.541 169.462 227.301 168.704 227.87 168.324C228.44 168.008 229.643 167.692 230.593 167.692Z" fill="white"/>
</svg>
